<svg xmlns="http://www.w3.org/2000/svg" viewBox="0 0 390 844" fill="none">
  <rect width="390" height="844" fill="#0B1F3F"/>
  <rect x="0" y="0" width="390" height="54" fill="#08182F"/>
  <text x="28" y="34" fill="white" font-family="Inter, system-ui, sans-serif" font-size="14" font-weight="600">9:41</text>
  <text x="24" y="92" fill="white" font-family="Inter, system-ui, sans-serif" font-size="24" font-weight="700">Analytics</text>
  <text x="24" y="118" fill="rgba(255,255,255,0.55)" font-family="Inter, system-ui, sans-serif" font-size="14">Track spending &amp; budgets</text>
  <rect x="24" y="140" width="342" height="40" rx="20" fill="rgba(255,255,255,0.08)"/>
  <rect x="28" y="144" width="106" height="32" rx="16" fill="#00AEEF"/>
  <text x="58" y="165" fill="white" font-family="Inter, system-ui, sans-serif" font-size="12" font-weight="600">Weekly</text>
  <text x="158" y="165" fill="rgba(255,255,255,0.55)" font-family="Inter, system-ui, sans-serif" font-size="12" font-weight="600">Monthly</text>
  <text x="258" y="165" fill="rgba(255,255,255,0.55)" font-family="Inter, system-ui, sans-serif" font-size="12" font-weight="600">Yearly</text>
  <rect x="24" y="200" width="342" height="220" rx="20" fill="rgba(255,255,255,0.05)" stroke="rgba(255,255,255,0.08)"/>
  <text x="44" y="232" fill="rgba(255,255,255,0.55)" font-family="Inter, system-ui, sans-serif" font-size="12">Budget / Spending</text>
  <text x="44" y="258" fill="white" font-family="Inter, system-ui, sans-serif" font-size="22" font-weight="700">RWF 186,400</text>
  <text x="44" y="282" fill="rgba(255,255,255,0.45)" font-family="Inter, system-ui, sans-serif" font-size="12">This week · 62% of budget</text>
  <rect x="52" y="330" width="28" height="52" rx="6" fill="rgba(0,174,239,0.25)"/>
  <rect x="92" y="318" width="28" height="64" rx="6" fill="rgba(0,174,239,0.25)"/>
  <rect x="132" y="302" width="28" height="80" rx="6" fill="#00AEEF"/>
  <rect x="172" y="312" width="28" height="70" rx="6" fill="rgba(0,174,239,0.25)"/>
  <rect x="212" y="296" width="28" height="86" rx="6" fill="rgba(0,174,239,0.45)"/>
  <rect x="252" y="308" width="28" height="74" rx="6" fill="rgba(0,174,239,0.25)"/>
  <rect x="292" y="290" width="28" height="92" rx="6" fill="rgba(0,174,239,0.35)"/>
  <rect x="332" y="304" width="28" height="78" rx="6" fill="rgba(0,174,239,0.25)"/>
  <text x="24" y="460" fill="white" font-family="Inter, system-ui, sans-serif" font-size="17" font-weight="700">Budget overview</text>
  <rect x="24" y="476" width="342" height="88" rx="16" fill="rgba(255,255,255,0.05)"/>
  <text x="44" y="506" fill="rgba(255,255,255,0.55)" font-family="Inter, system-ui, sans-serif" font-size="12">Budget</text>
  <text x="44" y="530" fill="white" font-family="Inter, system-ui, sans-serif" font-size="16" font-weight="700">RWF 300,000</text>
  <text x="220" y="506" fill="rgba(255,255,255,0.55)" font-family="Inter, system-ui, sans-serif" font-size="12">Remaining</text>
  <text x="220" y="530" fill="#4ADE80" font-family="Inter, system-ui, sans-serif" font-size="16" font-weight="700">RWF 113,600</text>
  <rect x="44" y="544" width="302" height="8" rx="4" fill="rgba(255,255,255,0.1)"/>
  <rect x="44" y="544" width="188" height="8" rx="4" fill="#00AEEF"/>
  <text x="24" y="600" fill="white" font-family="Inter, system-ui, sans-serif" font-size="17" font-weight="700">Savings goals</text>
  <rect x="24" y="616" width="342" height="72" rx="16" fill="rgba(255,255,255,0.05)"/>
  <text x="44" y="646" fill="white" font-family="Inter, system-ui, sans-serif" font-size="14" font-weight="600">Emergency fund</text>
  <text x="44" y="668" fill="rgba(255,255,255,0.45)" font-family="Inter, system-ui, sans-serif" font-size="12">RWF 420,000 / 1,000,000</text>
  <text x="300" y="656" fill="#00AEEF" font-family="Inter, system-ui, sans-serif" font-size="14" font-weight="700">42%</text>
  <rect x="0" y="760" width="390" height="84" fill="#08182F"/>
  <rect x="36" y="786" width="36" height="36" rx="10" fill="rgba(255,255,255,0.08)"/>
  <rect x="120" y="778" width="48" height="48" rx="14" fill="rgba(0,174,239,0.2)"/>
  <text x="132" y="842" fill="#00AEEF" font-family="Inter, system-ui, sans-serif" font-size="11" font-weight="600">Analytics</text>
</svg>
